<?xml version="1.0" encoding="UTF-8" standalone="no"?>
<!DOCTYPE svg PUBLIC "-//W3C//DTD SVG 1.1//EN"
 "http://www.w3.org/Graphics/SVG/1.1/DTD/svg11.dtd">
<!-- Generated by graphviz version 2.43.0 (0)
 -->
<!-- Title: workflow Pages: 1 -->
<svg width="732pt" height="323pt"
 viewBox="0.00 0.00 731.94 323.34" xmlns="http://www.w3.org/2000/svg" xmlns:xlink="http://www.w3.org/1999/xlink">
<g id="graph0" class="graph" transform="scale(1 1) rotate(0) translate(4 319.34)">
<title>workflow</title>
<polygon fill="white" stroke="transparent" points="-4,4 -4,-319.34 727.94,-319.34 727.94,4 -4,4"/>
<!-- place_92f9552174fc81f2ab9e6c0c1c06b3e11706a32b -->
<g id="node1" class="node">
<title>place_92f9552174fc81f2ab9e6c0c1c06b3e11706a32b</title>
<ellipse fill="lightblue" stroke="#333333" cx="36" cy="-152.44" rx="36" ry="36"/>
<text text-anchor="middle" x="36" y="-150.24" font-family="Arial" font-size="9.00">initialized</text>
</g>
<!-- place_1a96839298a8b02384c0a55683e1f390c986520f -->
<g id="node2" class="node">
<title>place_1a96839298a8b02384c0a55683e1f390c986520f</title>
<ellipse fill="none" stroke="#333333" cx="204.02" cy="-195.44" rx="48.05" ry="48.05"/>
<text text-anchor="middle" x="204.02" y="-193.24" font-family="Arial" font-size="9.00">sponsor_approved</text>
</g>
<!-- place_92f9552174fc81f2ab9e6c0c1c06b3e11706a32b&#45;&gt;place_1a96839298a8b02384c0a55683e1f390c986520f -->
<g id="edge2" class="edge">
<title>place_92f9552174fc81f2ab9e6c0c1c06b3e11706a32b&#45;&gt;place_1a96839298a8b02384c0a55683e1f390c986520f</title>
<path fill="none" stroke="#333333" d="M71,-161.25C94.49,-167.33 126.13,-175.53 152.55,-182.37"/>
<polygon fill="#333333" stroke="#333333" points="152.14,-184.07 157.42,-183.63 153.02,-180.68 152.14,-184.07"/>
<text text-anchor="middle" x="114" y="-180.24" font-family="Arial" font-size="9.00">sp_validate</text>
</g>
<!-- place_bf852a2dab84877424cb8e4492aa49b78e4278e2 -->
<g id="node3" class="node">
<title>place_bf852a2dab84877424cb8e4492aa49b78e4278e2</title>
<ellipse fill="none" stroke="#333333" cx="204.02" cy="-82.44" rx="46.45" ry="46.45"/>
<text text-anchor="middle" x="204.02" y="-80.24" font-family="Arial" font-size="9.00">student_approved</text>
</g>
<!-- place_92f9552174fc81f2ab9e6c0c1c06b3e11706a32b&#45;&gt;place_bf852a2dab84877424cb8e4492aa49b78e4278e2 -->
<g id="edge1" class="edge">
<title>place_92f9552174fc81f2ab9e6c0c1c06b3e11706a32b&#45;&gt;place_bf852a2dab84877424cb8e4492aa49b78e4278e2</title>
<path fill="none" stroke="#333333" d="M69.41,-138.78C94.12,-128.36 128.5,-113.86 156.2,-102.19"/>
<polygon fill="#333333" stroke="#333333" points="157.01,-103.74 160.94,-100.19 155.65,-100.52 157.01,-103.74"/>
<text text-anchor="middle" x="114" y="-132.24" font-family="Arial" font-size="9.00">st_validate</text>
</g>
<!-- place_3b49424acd1d8357c98aa5d790c0c909562b0fe8 -->
<g id="node4" class="node">
<title>place_3b49424acd1d8357c98aa5d790c0c909562b0fe8</title>
<ellipse fill="none" stroke="#333333" cx="382.49" cy="-271.44" rx="43.79" ry="43.79"/>
<text text-anchor="middle" x="382.49" y="-269.24" font-family="Arial" font-size="9.00">student_rejected</text>
</g>
<!-- place_92f9552174fc81f2ab9e6c0c1c06b3e11706a32b&#45;&gt;place_3b49424acd1d8357c98aa5d790c0c909562b0fe8 -->
<g id="edge3" class="edge">
<title>place_92f9552174fc81f2ab9e6c0c1c06b3e11706a32b&#45;&gt;place_3b49424acd1d8357c98aa5d790c0c909562b0fe8</title>
<path fill="none" stroke="#333333" d="M59.9,-179.41C81.87,-203.19 117.34,-236.48 156,-252.44 213.64,-276.23 286.48,-277.83 333.52,-275.6"/>
<polygon fill="#333333" stroke="#333333" points="333.66,-277.35 338.56,-275.35 333.48,-273.85 333.66,-277.35"/>
<text text-anchor="middle" x="204.02" y="-276.24" font-family="Arial" font-size="9.00">st_refuse</text>
</g>
<!-- place_a1f0ee0977fcadad8a31288d01f3c763ea070110 -->
<g id="node5" class="node">
<title>place_a1f0ee0977fcadad8a31288d01f3c763ea070110</title>
<ellipse fill="none" stroke="#333333" cx="382.49" cy="-45.44" rx="45.39" ry="45.39"/>
<text text-anchor="middle" x="382.49" y="-43.24" font-family="Arial" font-size="9.00">sponsor_rejected</text>
</g>
<!-- place_92f9552174fc81f2ab9e6c0c1c06b3e11706a32b&#45;&gt;place_a1f0ee0977fcadad8a31288d01f3c763ea070110 -->
<g id="edge4" class="edge">
<title>place_92f9552174fc81f2ab9e6c0c1c06b3e11706a32b&#45;&gt;place_a1f0ee0977fcadad8a31288d01f3c763ea070110</title>
<path fill="none" stroke="#333333" d="M53.79,-121.14C73.38,-88.31 109.16,-38.59 156,-17.44 214.05,8.77 288.57,-9.22 335.69,-26.08"/>
<polygon fill="#333333" stroke="#333333" points="335.15,-27.75 340.45,-27.81 336.35,-24.46 335.15,-27.75"/>
<text text-anchor="middle" x="204.02" y="-20.24" font-family="Arial" font-size="9.00">sp_refuse</text>
</g>
<!-- place_1a96839298a8b02384c0a55683e1f390c986520f&#45;&gt;place_3b49424acd1d8357c98aa5d790c0c909562b0fe8 -->
<g id="edge8" class="edge">
<title>place_1a96839298a8b02384c0a55683e1f390c986520f&#45;&gt;place_3b49424acd1d8357c98aa5d790c0c909562b0fe8</title>
<path fill="none" stroke="#333333" d="M248.65,-214.23C275.66,-225.86 310.25,-240.76 337.36,-252.44"/>
<polygon fill="#333333" stroke="#333333" points="336.7,-254.06 341.99,-254.43 338.09,-250.84 336.7,-254.06"/>
<text text-anchor="middle" x="294.55" y="-245.24" font-family="Arial" font-size="9.00">st_reject</text>
</g>
<!-- place_c9560d94ee19830374678a9c9f9a0833801c9f62 -->
<g id="node6" class="node">
<title>place_c9560d94ee19830374678a9c9f9a0833801c9f62</title>
<ellipse fill="none" stroke="#333333" cx="382.49" cy="-165.44" rx="36" ry="36"/>
<text text-anchor="middle" x="382.49" y="-163.24" font-family="Arial" font-size="9.00">approved</text>
</g>
<!-- place_1a96839298a8b02384c0a55683e1f390c986520f&#45;&gt;place_c9560d94ee19830374678a9c9f9a0833801c9f62 -->
<g id="edge7" class="edge">
<title>place_1a96839298a8b02384c0a55683e1f390c986520f&#45;&gt;place_c9560d94ee19830374678a9c9f9a0833801c9f62</title>
<path fill="none" stroke="#333333" d="M250.67,-182.65C257.14,-181.09 263.74,-179.63 270.05,-178.44 293.44,-174.04 319.9,-170.88 341.16,-168.78"/>
<polygon fill="#333333" stroke="#333333" points="341.36,-170.52 346.17,-168.29 341.02,-167.03 341.36,-170.52"/>
<text text-anchor="middle" x="294.55" y="-181.24" font-family="Arial" font-size="9.00">st_approve</text>
</g>
<!-- place_bf852a2dab84877424cb8e4492aa49b78e4278e2&#45;&gt;place_a1f0ee0977fcadad8a31288d01f3c763ea070110 -->
<g id="edge6" class="edge">
<title>place_bf852a2dab84877424cb8e4492aa49b78e4278e2&#45;&gt;place_a1f0ee0977fcadad8a31288d01f3c763ea070110</title>
<path fill="none" stroke="#333333" d="M249.79,-72.75C256.57,-71.3 263.5,-69.82 270.05,-68.44 290.46,-64.14 312.99,-59.47 332.42,-55.48"/>
<polygon fill="#333333" stroke="#333333" points="333.27,-57.09 337.81,-54.37 332.56,-53.66 333.27,-57.09"/>
<text text-anchor="middle" x="294.55" y="-71.24" font-family="Arial" font-size="9.00">sp_reject</text>
</g>
<!-- place_bf852a2dab84877424cb8e4492aa49b78e4278e2&#45;&gt;place_c9560d94ee19830374678a9c9f9a0833801c9f62 -->
<g id="edge5" class="edge">
<title>place_bf852a2dab84877424cb8e4492aa49b78e4278e2&#45;&gt;place_c9560d94ee19830374678a9c9f9a0833801c9f62</title>
<path fill="none" stroke="#333333" d="M246.4,-101.9C276.16,-115.9 315.93,-134.61 344.61,-148.09"/>
<polygon fill="#333333" stroke="#333333" points="344.2,-149.84 349.47,-150.38 345.69,-146.67 344.2,-149.84"/>
<text text-anchor="middle" x="294.55" y="-136.24" font-family="Arial" font-size="9.00">sp_approve</text>
</g>
<!-- place_985ce97a312e086d8e825f8414e2f499fa8ee0ab -->
<g id="node7" class="node">
<title>place_985ce97a312e086d8e825f8414e2f499fa8ee0ab</title>
<ellipse fill="none" stroke="#333333" cx="550.94" cy="-165.44" rx="36" ry="36"/>
<text text-anchor="middle" x="550.94" y="-163.24" font-family="Arial" font-size="9.00">sponsorship</text>
</g>
<!-- place_c9560d94ee19830374678a9c9f9a0833801c9f62&#45;&gt;place_985ce97a312e086d8e825f8414e2f499fa8ee0ab -->
<g id="edge9" class="edge">
<title>place_c9560d94ee19830374678a9c9f9a0833801c9f62&#45;&gt;place_985ce97a312e086d8e825f8414e2f499fa8ee0ab</title>
<path fill="none" stroke="#333333" d="M418.79,-165.44C445.38,-165.44 481.88,-165.44 509.62,-165.44"/>
<polygon fill="#333333" stroke="#333333" points="509.69,-167.19 514.69,-165.44 509.69,-163.69 509.69,-167.19"/>
<text text-anchor="middle" x="471.44" y="-168.24" font-family="Arial" font-size="9.00">to_conclude</text>
</g>
<!-- place_ba92ed73c97b30bcc4639724ab6aa8ae87f92601 -->
<g id="node8" class="node">
<title>place_ba92ed73c97b30bcc4639724ab6aa8ae87f92601</title>
<ellipse fill="none" stroke="#333333" cx="687.94" cy="-165.44" rx="36" ry="36"/>
<text text-anchor="middle" x="687.94" y="-163.24" font-family="Arial" font-size="9.00">ended</text>
</g>
<!-- place_985ce97a312e086d8e825f8414e2f499fa8ee0ab&#45;&gt;place_ba92ed73c97b30bcc4639724ab6aa8ae87f92601 -->
<g id="edge10" class="edge">
<title>place_985ce97a312e086d8e825f8414e2f499fa8ee0ab&#45;&gt;place_ba92ed73c97b30bcc4639724ab6aa8ae87f92601</title>
<path fill="none" stroke="#333333" d="M587.05,-165.44C605.19,-165.44 627.42,-165.44 646.3,-165.44"/>
<polygon fill="#333333" stroke="#333333" points="646.53,-167.19 651.53,-165.44 646.53,-163.69 646.53,-167.19"/>
<text text-anchor="middle" x="619.44" y="-168.24" font-family="Arial" font-size="9.00">to_end</text>
</g>
</g>
</svg>
